<svg width="368" height="298" viewBox="0 0 368 298" fill="none" xmlns="http://www.w3.org/2000/svg">
<path d="M293.224 86.1673C283.541 54.3387 264.367 23.8791 238.36 2.74184C237.874 2.35194 237.291 2.10428 236.673 2.02642C236.056 1.94857 235.429 2.04356 234.862 2.30084L192.979 21.2178C155.567 14.2883 118.162 12.8004 82.0888 26.0879C81.4749 26.3166 80.9413 26.7198 80.5536 27.2478C80.1659 27.7758 79.9411 28.4057 79.9068 29.0599C79.3814 39.2987 77.1956 81.9337 77.1956 81.9337C52.2658 108.267 32.7391 141.403 28.0262 177.339C27.9497 177.948 28.0415 178.566 28.2917 179.127C28.5418 179.687 28.9407 180.168 29.445 180.518L74.3732 211.829C84.056 243.658 103.23 274.121 129.237 295.258C129.722 295.648 130.306 295.896 130.924 295.974C131.541 296.051 132.168 295.956 132.735 295.699L174.622 276.782C212.03 283.708 249.434 285.2 285.508 271.912C286.122 271.681 286.656 271.277 287.044 270.748C287.433 270.218 287.658 269.588 287.694 268.932L290.405 216.07C315.358 189.729 334.858 156.597 339.574 120.661C339.651 120.052 339.559 119.434 339.309 118.873C339.059 118.313 338.66 117.832 338.156 117.482L293.224 86.1673Z" fill="#45E0A8"/>
<mask id="mask0" mask-type="alpha" maskUnits="userSpaceOnUse" x="28" y="2" width="312" height="294">
<path d="M293.224 86.1673C283.541 54.3387 264.367 23.8791 238.36 2.74184C237.874 2.35194 237.291 2.10428 236.673 2.02642C236.056 1.94857 235.429 2.04356 234.862 2.30084L192.979 21.2178C155.567 14.2883 118.162 12.8004 82.0888 26.0879C81.4749 26.3166 80.9413 26.7198 80.5536 27.2478C80.1659 27.7758 79.9411 28.4057 79.9068 29.0599C79.3814 39.2987 77.1956 81.9337 77.1956 81.9337C52.2658 108.267 32.7391 141.403 28.0262 177.339C27.9497 177.948 28.0415 178.566 28.2917 179.127C28.5418 179.687 28.9407 180.168 29.445 180.518L74.3732 211.829C84.056 243.658 103.23 274.121 129.237 295.258C129.722 295.648 130.306 295.896 130.924 295.974C131.541 296.051 132.168 295.956 132.735 295.699L174.622 276.782C212.03 283.708 249.434 285.2 285.508 271.912C286.122 271.681 286.656 271.277 287.044 270.748C287.433 270.218 287.658 269.588 287.694 268.932L290.405 216.07C315.358 189.729 334.858 156.597 339.574 120.661C339.651 120.052 339.559 119.434 339.309 118.873C339.059 118.313 338.66 117.832 338.156 117.482L293.224 86.1673Z" fill="#FF642D"/>
</mask>
<g mask="url(#mask0)">
<path d="M117.614 224.353C117.614 224.353 111.356 206.268 111.356 180.533C111.356 154.798 115.992 135.601 115.992 135.601C115.992 135.601 111.356 98.2391 130.292 86.0867C141.973 78.5898 155.486 81.4505 155.486 81.4505C155.486 81.4505 160.433 77.9724 175.734 78.862C191.035 79.7517 191.656 81.2971 191.656 81.2971C191.656 81.2971 197.373 79.1343 207.578 80.0585C217.782 80.9827 222.875 84.2537 222.875 84.2537C222.875 84.2537 239.034 78.5016 250.934 83.6171C262.833 88.7327 267.396 99.5315 266.932 107.266C266.468 115.001 264.152 118.18 264.459 119.537C264.766 120.895 269.563 127.798 270.644 138.792C271.726 149.786 268.942 155.193 268.942 156.896C268.942 158.598 273.889 164.469 274.199 174.981C274.51 185.492 273.467 229.281 273.467 229.281H252.057L252.97 258.536L117.614 224.353Z" fill="#45E0A8"/>
<mask id="mask1" mask-type="alpha" maskUnits="userSpaceOnUse" x="111" y="78" width="164" height="181">
<path d="M117.614 224.353C117.614 224.353 111.356 206.268 111.356 180.533C111.356 154.798 115.992 135.601 115.992 135.601C115.992 135.601 111.356 98.2391 130.292 86.0867C141.973 78.5898 155.486 81.4505 155.486 81.4505C155.486 81.4505 160.433 77.9724 175.734 78.862C191.035 79.7517 191.656 81.2971 191.656 81.2971C191.656 81.2971 197.373 79.1343 207.578 80.0585C217.782 80.9827 222.875 84.2537 222.875 84.2537C222.875 84.2537 239.034 78.5016 250.934 83.6171C262.833 88.7327 267.396 99.5315 266.932 107.266C266.468 115.001 264.152 118.18 264.459 119.537C264.766 120.895 269.563 127.798 270.644 138.792C271.726 149.786 268.942 155.193 268.942 156.896C268.942 158.598 273.889 164.469 274.199 174.981C274.51 185.492 273.467 229.281 273.467 229.281H252.057L252.97 258.536L117.614 224.353Z" fill="#FF642D"/>
</mask>
<g mask="url(#mask1)">
<path d="M233.597 84.7751C254.182 88.2533 262.066 99.006 263.454 105.916C264.842 112.826 265.149 116.592 265.149 116.592C265.149 116.592 270.039 108.42 264.428 96.0187C258.818 83.617 246.083 81.3814 243.283 81.4466C240.484 81.5117 235.633 81.4466 235.633 81.4466L233.597 84.7751Z" fill="white"/>
<path d="M255.804 125.543C259.746 126.509 266.158 134.857 267.124 143.9C268.091 152.942 267.124 155.722 267.124 155.722L269.506 154.338C269.506 154.338 273.221 141.165 269.226 131.191C265.23 121.217 265.149 122.62 265.149 122.62L255.804 125.543Z" fill="white"/>
<path d="M125.894 89.7758C131.201 85.5345 145.8 83.1761 150.497 84.5413C155.195 85.9065 155.184 82.7658 161.212 81.4505C167.24 80.1352 181.095 78.862 181.095 78.862C176.083 77.9308 170.991 77.5043 165.894 77.5889C158.198 77.819 154.808 80.3691 154.808 80.3691C154.808 80.3691 153.838 79.9051 143.614 81.2971C133.391 82.6891 125.894 89.7758 125.894 89.7758Z" fill="white"/>
</g>
<path d="M117.614 224.353C117.614 224.353 111.356 206.268 111.356 180.533C111.356 154.798 115.992 135.601 115.992 135.601C115.992 135.601 111.356 98.2391 130.292 86.0867C141.973 78.5898 155.486 81.4505 155.486 81.4505C155.486 81.4505 160.433 77.9724 175.734 78.862C191.035 79.7517 191.656 81.2971 191.656 81.2971C191.656 81.2971 197.373 79.1343 207.578 80.0585C217.782 80.9827 222.875 84.2537 222.875 84.2537C222.875 84.2537 239.034 78.5016 250.934 83.6171C262.833 88.7327 267.396 99.5315 266.932 107.266C266.468 115.001 264.152 118.18 264.459 119.537C264.766 120.895 269.563 127.798 270.644 138.792C271.726 149.786 268.942 155.193 268.942 156.896C268.942 158.598 273.889 164.469 274.199 174.981C274.51 185.492 273.467 229.281 273.467 229.281H252.057L252.97 258.536L117.614 224.353Z" stroke="black" stroke-width="1.2" stroke-linecap="round" stroke-linejoin="round"/>
<path d="M83.5308 244.064V254.728L129.207 259.829V246.384L83.5308 244.064Z" fill="#45E0A8" stroke="black" stroke-width="1.2" stroke-linecap="round" stroke-linejoin="round"/>
<path d="M117.614 224.357L83.5308 244.064L126.63 247.695L135.005 224.357H117.614Z" fill="white" stroke="black" stroke-width="1.2" stroke-linecap="round" stroke-linejoin="round"/>
<path d="M127.09 245.452C127.09 245.452 120.87 274.309 122.254 289.211C123.639 304.113 135.005 299.476 136.163 298.556C137.321 297.636 138.652 266.793 138.882 266.344C139.112 265.895 156.104 271.517 193.665 271.598C231.227 271.678 241.404 266.421 241.404 266.421C241.404 266.421 245.834 289.299 246.773 296.021C247.713 302.744 252.909 295.776 254.887 287.642C256.866 279.509 252.51 251.503 249.757 245.46C247.003 239.416 127.09 245.452 127.09 245.452Z" fill="black" stroke="black" stroke-width="1.2" stroke-linecap="round" stroke-linejoin="round"/>
</g>
<path d="M293.224 86.1673C283.541 54.3387 264.367 23.8791 238.36 2.74184C237.874 2.35194 237.291 2.10428 236.673 2.02642C236.056 1.94857 235.429 2.04356 234.862 2.30084L192.979 21.2178C155.567 14.2883 118.162 12.8004 82.0888 26.0879C81.4749 26.3166 80.9413 26.7198 80.5536 27.2478C80.1659 27.7758 79.9411 28.4057 79.9068 29.0599C79.3814 39.2987 77.1956 81.9337 77.1956 81.9337C52.2658 108.267 32.7391 141.403 28.0262 177.339C27.9497 177.948 28.0415 178.566 28.2917 179.127C28.5418 179.687 28.9407 180.168 29.445 180.518L74.3732 211.829C84.056 243.658 103.23 274.121 129.237 295.258C129.722 295.648 130.306 295.896 130.924 295.974C131.541 296.051 132.168 295.956 132.735 295.699L174.622 276.782C212.03 283.708 249.434 285.2 285.508 271.912C286.122 271.681 286.656 271.277 287.044 270.748C287.433 270.218 287.658 269.588 287.694 268.932L290.405 216.07C315.358 189.729 334.858 156.597 339.574 120.661C339.651 120.052 339.559 119.434 339.309 118.873C339.059 118.313 338.66 117.832 338.156 117.482L293.224 86.1673Z" stroke="white" stroke-width="2" stroke-linecap="round" stroke-linejoin="round"/>
<path d="M221.026 96.0188C220.328 106.802 220.259 120.688 220.881 122.621C221.502 124.553 220.785 136.015 222.875 144.364C224.965 152.712 228.719 161.237 234.494 160.569C240.269 159.902 261.445 163.607 268.942 156.884" stroke="black" stroke-width="1.2" stroke-linecap="round" stroke-linejoin="round"/>
<path d="M264.459 119.526C264.459 119.526 253.024 125.351 238.877 124.423C224.731 123.495 221.901 122.076 220.881 122.621C219.861 123.165 190.682 128.101 171.888 124.538C153.093 120.976 141.497 122.621 141.497 122.621" stroke="black" stroke-width="1.2" stroke-linecap="round" stroke-linejoin="round"/>
<path d="M155.486 81.4504C155.486 81.4504 153.952 99.3818 155.486 116.385C157.02 133.389 155.486 136.805 155.486 136.805" fill="#45E0A8"/>
<path d="M155.486 81.4504C155.486 81.4504 153.952 99.3818 155.486 116.385C157.02 133.389 155.486 136.805 155.486 136.805" stroke="black" stroke-width="1.2" stroke-linecap="round" stroke-linejoin="round"/>
<path d="M252.046 229.269L264.459 251.411" stroke="black" stroke-width="1.2" stroke-linecap="round" stroke-linejoin="round"/>
<path d="M244.085 247.692C246.248 237.491 246.769 216.791 246.769 216.791C246.769 216.791 248.391 217.662 257.05 230.09C265.709 242.519 266.323 245.299 266.323 245.299C266.323 245.299 280.542 237.878 293.837 244.681C307.132 251.484 306.822 256.427 306.822 256.427C306.822 256.427 311.769 224.215 291.053 190.853C270.338 157.49 228.454 137.63 223.945 135.659C219.435 133.688 232.642 176.353 229.858 199.538C227.074 222.723 222.994 250.855 222.994 250.855L244.085 247.692Z" fill="black"/>
<path d="M225.175 139.141C243.747 152.708 269.985 164.304 285.734 190.968C301.484 217.631 302.642 245.452 302.642 245.452L307.243 250.905C307.243 250.905 310.768 212.473 286.885 183.636C263.002 154.798 228.845 137.902 225.175 136.238C221.506 134.573 225.175 139.141 225.175 139.141Z" fill="#45E0A8"/>
<path d="M244.085 247.692C246.248 237.491 246.769 216.791 246.769 216.791C246.769 216.791 248.391 217.662 257.05 230.09C265.709 242.519 266.323 245.299 266.323 245.299C266.323 245.299 280.542 237.878 293.837 244.681C307.132 251.484 306.822 256.427 306.822 256.427C306.822 256.427 311.769 224.215 291.053 190.853C270.338 157.49 228.454 137.63 223.945 135.659C219.435 133.688 232.642 176.353 229.858 199.538C227.074 222.723 222.994 250.855 222.994 250.855L244.085 247.692Z" stroke="black" stroke-width="1.2" stroke-linecap="round" stroke-linejoin="round"/>
<path d="M152.495 117.938C152.495 117.938 125.498 110.445 115.298 91.4784C105.097 72.5116 133.896 53.3301 133.896 53.3301L136.163 36.3459L126.426 21.954C126.426 21.954 84.8344 31.6751 72.172 62.3034C60.5794 90.328 65.6874 114.061 84.6925 136.399C103.698 158.736 110.451 161.275 114.604 172.492C120.701 188.939 123.635 237.108 130.591 249.164L150.482 247.692C150.482 247.692 142.183 196.762 150.068 163.373C157.952 129.983 154.669 123.805 154.669 123.805L152.495 117.938Z" fill="black"/>
<path d="M66.719 81.4505C66.719 81.4505 72.172 49.0352 110.685 30.287C127.097 22.2992 128.578 24.1514 128.578 24.1514L127.454 19.4576C127.454 19.4576 105.569 21.3022 87.9291 39.3563C70.2892 57.4104 66.719 81.4505 66.719 81.4505Z" fill="#45E0A8"/>
<mask id="mask2" mask-type="alpha" maskUnits="userSpaceOnUse" x="66" y="21" width="90" height="229">
<path d="M152.495 117.938C152.495 117.938 125.498 110.445 115.298 91.4784C105.097 72.5116 133.896 53.3301 133.896 53.3301L136.163 36.3459L126.426 21.954C126.426 21.954 84.8344 31.6751 72.172 62.3034C60.5794 90.328 65.6874 114.061 84.6925 136.399C103.698 158.736 110.451 161.275 114.604 172.492C120.701 188.939 123.635 237.108 130.591 249.164L150.482 247.692C150.482 247.692 142.183 196.762 150.068 163.373C157.952 129.983 154.669 123.805 154.669 123.805L152.495 117.938Z" fill="black"/>
</mask>
<g mask="url(#mask2)">
<path d="M192.162 125.991C192.162 125.991 158.255 123.771 135.549 104.935C121.503 93.277 118.251 94.9873 118.251 94.9873C118.251 94.9873 129.916 113.609 154.041 120.987C178.165 128.365 192.162 125.991 192.162 125.991Z" fill="#45E0A8"/>
</g>
<path d="M152.495 117.938C152.495 117.938 125.498 110.445 115.298 91.4784C105.097 72.5116 133.896 53.3301 133.896 53.3301L136.163 36.3459L126.426 21.954C126.426 21.954 84.8344 31.6751 72.172 62.3034C60.5794 90.328 65.6874 114.061 84.6925 136.399C103.698 158.736 110.451 161.275 114.604 172.492C120.701 188.939 123.635 237.108 130.591 249.164L150.482 247.692C150.482 247.692 142.183 196.762 150.068 163.373C157.952 129.983 154.669 123.805 154.669 123.805L152.495 117.938Z" stroke="black" stroke-width="1.2" stroke-linecap="round" stroke-linejoin="round"/>
<path d="M274.257 220.748C265.82 232.41 265.82 244.071 265.82 244.071" stroke="#45E0A8" stroke-width="1.2" stroke-linecap="round" stroke-linejoin="round"/>
<path d="M203.241 126.509C203.241 126.509 218.94 142.044 221.955 168.243C224.969 194.442 219.654 224.123 219.654 224.123L153.343 226.673C153.343 226.673 150.559 198.618 155.195 165.229C159.831 131.839 168.421 120.872 168.421 120.872L203.241 126.509Z" fill="white" stroke="black" stroke-width="1.2" stroke-linecap="round" stroke-linejoin="round"/>
<path d="M171.888 114.28C171.888 114.28 170.99 78.8428 175.86 66.3453C180.731 53.8478 195.287 44.56 208.272 45.488C221.256 46.416 226.41 51.0369 233.581 51.9649C240.752 52.8929 244.702 46.5962 244.702 46.5962C244.702 46.5962 247.095 73.708 225.962 100.091C215.972 112.57 171.888 114.28 171.888 114.28Z" fill="black" stroke="black" stroke-width="1.2" stroke-linecap="round" stroke-linejoin="round"/>
<path d="M168.981 119.526C168.981 119.526 178.829 102.96 179.446 94.1282C180.063 85.2967 205.722 125.658 205.722 125.658C205.722 125.658 201.599 131.843 199.797 136.479C197.995 141.116 193.662 149.464 180.063 144.828C166.465 140.191 166.358 124.193 168.981 119.526Z" fill="#45E0A8" stroke="black" stroke-width="1.2" stroke-linecap="round" stroke-linejoin="round"/>
<path d="M180.063 100.927C180.063 100.927 171.216 93.8942 174.422 87.7893C177.705 81.5309 181.919 87.3253 181.919 87.3253C181.919 87.3253 183.733 73.4127 196.108 67.8485C208.483 62.2842 220.267 67.0815 225.206 78.3596C232.143 94.1895 221.187 113.912 211.911 122.877C202.635 131.843 197.692 132.771 192.438 129.37C187.184 125.968 182.234 118.548 180.999 112.677" fill="#45E0A8"/>
<path d="M216.919 68.512C225.663 86.1519 222.971 100.156 216.919 113.061C212.874 121.689 204.813 128.737 204.813 128.737C204.813 128.737 218.833 119.794 222.875 107.297C226.917 94.7993 227.714 89.865 227.146 83.0775C226.579 76.2899 216.919 68.512 216.919 68.512Z" fill="white"/>
<path d="M180.063 100.927C180.063 100.927 171.216 93.8942 174.422 87.7893C177.705 81.5309 181.919 87.3253 181.919 87.3253C181.919 87.3253 183.733 73.4127 196.108 67.8485C208.483 62.2842 220.267 67.0815 225.206 78.3596C232.143 94.1895 221.187 113.912 211.911 122.877C202.635 131.843 197.692 132.771 192.438 129.37C187.184 125.968 182.234 118.548 180.999 112.677" stroke="black" stroke-width="1.2" stroke-linecap="round" stroke-linejoin="round"/>
<path d="M211.286 97.7598C211.286 97.7598 215.462 102.626 213.606 105.18C211.75 107.734 206.65 102.86 206.65 102.86" fill="#45E0A8"/>
<path d="M211.286 97.7598C211.286 97.7598 215.462 102.626 213.606 105.18C211.75 107.734 206.65 102.86 206.65 102.86" stroke="black" stroke-width="1.2" stroke-linecap="round" stroke-linejoin="round"/>
<path d="M199.755 103.493C200.257 107.711 197.343 107.884 194.064 106.204C191.564 104.919 189.152 101.449 191.545 98.7261C193.178 96.8663 195.429 95.7082 196.94 97.1117C199.195 99.2055 199.575 101.997 199.755 103.493Z" fill="black" stroke="black" stroke-width="1.2" stroke-linecap="round" stroke-linejoin="round"/>
<path d="M181.409 114.28C181.409 114.28 182.073 129.236 189.493 134.47C196.913 139.705 200.671 134.47 200.671 134.47L203.241 129.669C203.241 129.669 201.738 132.48 194.904 130.915C187.99 129.335 181.409 114.28 181.409 114.28Z" fill="black"/>
<path d="M168.981 119.526C168.981 119.526 165.947 120.047 160.161 119.526C155.417 119.093 152.491 117.931 152.491 117.931C152.491 117.931 138.64 146.419 140.565 184.939C142.651 226.673 148.423 241.449 148.423 241.449L159.578 240.34C159.578 240.34 153.258 214.076 156.188 171.721C158.815 133.32 168.981 119.526 168.981 119.526Z" fill="#45E0A8" stroke="black" stroke-width="1.2" stroke-linecap="round" stroke-linejoin="round"/>
<path d="M204.813 128.737C204.813 128.737 208.506 130.102 213.836 131.728C217.286 132.805 220.656 134.12 223.922 135.666C223.922 135.666 232.324 156.899 233.313 181.227C234.705 215.453 230.533 240.34 230.533 240.34L219.654 237.802C219.654 237.802 219.876 207.43 216.624 178.447C213.372 149.464 204.813 128.737 204.813 128.737Z" fill="#45E0A8"/>
<path d="M205.722 131.111C212.525 133.235 225.176 139.141 225.176 139.141L223.922 135.666C223.922 135.666 216.777 132.733 211.85 131.111C206.922 129.489 204.813 128.737 204.813 128.737L205.722 131.111Z" fill="white"/>
<path d="M204.813 128.737C204.813 128.737 208.506 130.102 213.836 131.728C217.286 132.805 220.656 134.12 223.922 135.666C223.922 135.666 232.324 156.899 233.313 181.227C234.705 215.453 230.533 240.34 230.533 240.34L219.654 237.802C219.654 237.802 219.876 207.43 216.624 178.447C213.372 149.464 204.813 128.737 204.813 128.737Z" stroke="black" stroke-width="1.2" stroke-linecap="round" stroke-linejoin="round"/>
<path d="M265.149 248.083L265.813 244.072C265.813 244.072 271.055 237.035 285.711 237.936C304.379 239.06 307.332 249.647 307.332 249.647L306.814 256.446C306.814 256.446 296.61 246.399 283.629 246.399C270.648 246.399 265.149 248.083 265.149 248.083Z" fill="#45E0A8"/>
<path d="M302.485 243.335C302.439 248.198 302.485 249.295 302.485 249.295L306.826 255.342C307.092 253.45 307.261 251.545 307.332 249.636C307.405 246.84 302.485 243.335 302.485 243.335Z" fill="white"/>
<path d="M265.149 248.083L265.813 244.072C265.813 244.072 271.055 237.035 285.711 237.936C304.379 239.06 307.332 249.647 307.332 249.647L306.814 256.446C306.814 256.446 296.61 246.399 283.629 246.399C270.648 246.399 265.149 248.083 265.149 248.083Z" stroke="black" stroke-width="1.2" stroke-linecap="round" stroke-linejoin="round"/>
<path d="M139.698 19.0013C139.698 19.0013 148.434 16.7004 165.901 15.2931C183.369 13.8857 196.369 14.7869 196.771 17.5939C197.235 20.8381 175.749 22.6942 175.749 22.6942L176.37 31.1959C176.37 31.1959 200.487 30.264 200.487 32.8947C200.487 37.6881 172.493 39.0111 172.493 39.0111" fill="#45E0A8"/>
<path d="M141.854 20.4163C166.553 16.455 190.287 16.6084 192.323 17.3025C194.359 17.9966 194.781 19.3771 194.781 19.3771C194.781 19.3771 198.08 19.4486 196.236 16.6953C192.689 15.1752 178.534 13.0244 159.751 15.6819C140.968 18.3394 139.698 19.0013 139.698 19.0013L141.854 20.4163Z" fill="white"/>
<path d="M139.698 19.0013C139.698 19.0013 148.434 16.7004 165.901 15.2931C183.369 13.8857 196.369 14.7869 196.771 17.5939C197.235 20.8381 175.749 22.6942 175.749 22.6942L176.37 31.1959C176.37 31.1959 200.487 30.264 200.487 32.8947C200.487 37.6881 172.493 39.0111 172.493 39.0111" stroke="black" stroke-width="1.2" stroke-linecap="round" stroke-linejoin="round"/>
<path d="M172.49 20.8573C172.49 20.8573 190.237 20.0443 194.904 20.6272C201.086 21.3941 203.444 23.695 200.2 25.2519C196.956 26.8088 172.973 27.1194 172.973 27.1194" fill="#45E0A8"/>
<path d="M187.073 20.4279C191.292 20.4279 197.255 21.9848 198.26 23.7679L199.26 25.5511C199.26 25.5511 203.544 24.1399 201.657 22.9895C199.77 21.839 197.987 20.9187 194.919 20.6273C191.852 20.3358 187.073 20.4279 187.073 20.4279Z" fill="white"/>
<path d="M172.49 20.8573C172.49 20.8573 190.237 20.0443 194.904 20.6272C201.086 21.3941 203.444 23.695 200.2 25.2519C196.956 26.8088 172.973 27.1194 172.973 27.1194" stroke="black" stroke-width="1.2" stroke-linecap="round" stroke-linejoin="round"/>
<path d="M172.49 26.4215C172.49 26.4215 192.749 25.11 197.385 25.8808C202.021 26.6516 203.559 28.9678 199.797 30.4173C196.442 31.7135 172.49 32.2963 172.49 32.2963" fill="#45E0A8"/>
<path d="M194.605 25.6392C198.535 27.7368 201.293 28.9678 201.293 28.9678C201.293 28.9678 201.676 27.7598 200.472 26.6669C199.268 25.574 194.605 25.6392 194.605 25.6392Z" fill="white"/>
<path d="M172.49 26.4215C172.49 26.4215 192.749 25.11 197.385 25.8808C202.021 26.6516 203.559 28.9678 199.797 30.4173C196.442 31.7135 172.49 32.2963 172.49 32.2963" stroke="black" stroke-width="1.2" stroke-linecap="round" stroke-linejoin="round"/>
<path d="M145.129 49.0352C145.129 49.0352 159.317 47.7544 170.078 48.065C180.838 48.3757 186.387 48.0152 186.632 46.1477C187.073 42.7462 175.596 41.2775 171.888 38.6507C168.179 36.0239 162.907 34.6318 162.907 34.6318" fill="#45E0A8"/>
<path d="M145.129 49.0352C145.129 49.0352 159.317 47.7544 170.078 48.065C180.838 48.3757 186.387 48.0152 186.632 46.1477C187.073 42.7462 175.596 41.2775 171.888 38.6507C168.179 36.0239 162.907 34.6318 162.907 34.6318" stroke="black" stroke-width="1.2" stroke-linecap="round" stroke-linejoin="round"/>
<path d="M265.149 248.083C265.149 248.083 259.93 260.331 259.282 266.106C258.665 271.59 261.138 273.987 266.468 273.987C271.799 273.987 280.381 275.843 280.381 275.843C280.381 275.843 286.62 290.189 294.757 285.119C300.088 281.794 306.296 263.261 306.814 256.443C307.332 249.624 300.115 244.586 284.71 242.687C273.425 241.28 265.149 248.083 265.149 248.083Z" fill="#45E0A8"/>
<path d="M302.438 248.19C302.592 252.24 301.25 270.65 296.61 280.464C293.158 287.819 294.757 285.104 294.757 285.104C294.757 285.104 302.335 278.167 304.67 266.056C307.006 253.946 306.704 253.34 306.704 253.34L302.438 248.19Z" fill="white"/>
<path d="M265.149 248.083C265.149 248.083 259.93 260.331 259.282 266.106C258.665 271.59 261.138 273.987 266.468 273.987C271.799 273.987 280.381 275.843 280.381 275.843C280.381 275.843 286.62 290.189 294.757 285.119C300.088 281.794 306.296 263.261 306.814 256.443C307.332 249.624 300.115 244.586 284.71 242.687C273.425 241.28 265.149 248.083 265.149 248.083Z" stroke="black" stroke-width="1.2" stroke-linecap="round" stroke-linejoin="round"/>
<path d="M265.149 259.825C265.149 265.082 267.09 273.891 272.819 279.919C278.548 285.947 281.784 285.307 281.784 285.307L278.072 268.016" fill="#45E0A8"/>
<path d="M265.149 259.825C265.149 265.082 267.09 273.891 272.819 279.919C278.548 285.947 281.784 285.307 281.784 285.307L278.072 268.016" stroke="black" stroke-width="1.2" stroke-linecap="round" stroke-linejoin="round"/>
<path d="M274.928 260.975C274.464 270.098 276.362 280.832 280.68 285.318C284.998 289.805 285.788 286.714 286.229 284.394C286.67 282.074 285.462 272.338 286.862 265.987" fill="#45E0A8"/>
<path d="M274.928 260.975C274.464 270.098 276.362 280.832 280.68 285.318C284.998 289.805 285.788 286.714 286.229 284.394C286.67 282.074 285.462 272.338 286.862 265.987" stroke="black" stroke-width="1.2" stroke-linecap="round" stroke-linejoin="round"/>
<path d="M296.61 269.722C295.222 275.904 292.748 283.478 291.356 286.569C289.964 289.659 287.138 289.663 286.241 286.569C285.343 283.474 285.711 268.254 286.873 263.943" fill="#45E0A8"/>
<path d="M295.919 272.579C292.292 284.256 286.873 287.619 286.873 287.619C286.873 287.619 287.581 290.356 289.981 288.305C294.035 283.237 295.919 272.579 295.919 272.579Z" fill="white"/>
<path d="M296.61 269.722C295.222 275.904 292.748 283.478 291.356 286.569C289.964 289.659 287.138 289.663 286.241 286.569C285.343 283.474 285.711 268.254 286.873 263.943" stroke="black" stroke-width="1.2" stroke-linecap="round" stroke-linejoin="round"/>
<path d="M269.601 252.539C271.687 252.075 285.266 250.752 299.394 258.536Z" fill="#45E0A8"/>
<path d="M269.601 252.539C271.687 252.075 285.266 250.752 299.394 258.536" stroke="black" stroke-width="1.2" stroke-linecap="round" stroke-linejoin="round"/>
<path d="M188.415 259.833C222.285 259.833 249.741 253.396 249.741 245.456C249.741 237.516 222.285 231.079 188.415 231.079C154.546 231.079 127.09 237.516 127.09 245.456C127.09 253.396 154.546 259.833 188.415 259.833Z" fill="black" stroke="#45E0A8" stroke-width="1.2" stroke-linecap="round" stroke-linejoin="round"/>
<path d="M228.408 241.449L226.364 226.673H150.49L148.426 241.449C148.377 241.634 148.35 241.824 148.346 242.016C148.346 247.205 166.289 251.411 188.419 251.411C210.55 251.411 228.489 247.193 228.489 242.016C228.487 241.824 228.459 241.634 228.408 241.449V241.449Z" fill="#45E0A8"/>
<path d="M228.489 242.016C228.489 242.016 228.811 245.272 222.02 247.136C215.228 248.999 213.786 249.287 213.786 249.287L211.984 233.637C211.984 233.637 220.125 232.238 222.971 230.343C225.816 228.449 226.345 226.673 226.345 226.673L228.489 242.016Z" fill="white"/>
<path d="M202.976 234.765L204.809 250.019H208.272L206.339 234.634L202.976 234.765Z" fill="white"/>
<path d="M228.408 241.449L226.364 226.673H150.49L148.426 241.449C148.377 241.634 148.35 241.824 148.346 242.016C148.346 247.205 166.289 251.411 188.419 251.411C210.55 251.411 228.489 247.193 228.489 242.016C228.487 241.824 228.408 241.449 228.408 241.449Z" stroke="black" stroke-width="1.2" stroke-linecap="round" stroke-linejoin="round"/>
<path d="M188.415 235.562C209.363 235.562 226.345 231.583 226.345 226.673C226.345 221.764 209.363 217.784 188.415 217.784C167.467 217.784 150.486 221.764 150.486 226.673C150.486 231.583 167.467 235.562 188.415 235.562Z" fill="#45E0A8"/>
<path d="M200.472 235.106C200.472 235.106 213.84 233.491 219.205 228.732C224.57 223.973 216.701 220.748 216.701 220.748C216.701 220.748 225.605 221.515 225.942 225.377C226.28 229.239 223.707 230.853 218.204 232.176C212.701 233.499 200.472 235.106 200.472 235.106Z" fill="white"/>
<path d="M188.415 235.562C209.363 235.562 226.345 231.583 226.345 226.673C226.345 221.764 209.363 217.784 188.415 217.784C167.467 217.784 150.486 221.764 150.486 226.673C150.486 231.583 167.467 235.562 188.415 235.562Z" stroke="black" stroke-width="1.2" stroke-linecap="round" stroke-linejoin="round"/>
<path d="M213.786 224.372C212.298 227.352 201.515 229.852 188.415 229.852C174.641 229.852 163.516 227.348 162.964 224.154C163.048 223.571 165.844 200.24 188.373 200.532C211.171 200.823 213.633 223.659 213.786 224.372Z" fill="#45E0A8"/>
<path d="M190.901 201.153C196.216 203.143 202.328 207.944 204.372 215.456C205.592 219.913 205.051 224.668 202.861 228.736C202.861 228.736 210.182 226.662 211.984 225.519C213.787 224.376 213.875 224.2 212.368 217.788C210.861 211.376 206.807 206.943 202.869 204.922C198.931 202.901 196.565 201.82 194.13 201.552C191.694 201.283 190.901 201.153 190.901 201.153Z" fill="white"/>
<path d="M190.563 205.804C195.732 203.12 198.842 208.174 198.842 212.902C198.842 217.631 188.784 206.732 190.563 205.804Z" fill="white"/>
<path d="M213.786 224.372C212.298 227.352 201.515 229.852 188.415 229.852C174.641 229.852 163.516 227.348 162.964 224.154C163.048 223.571 165.844 200.24 188.373 200.532C211.171 200.823 213.633 223.659 213.786 224.372Z" stroke="black" stroke-width="1.2" stroke-linecap="round" stroke-linejoin="round"/>
<path d="M159.582 197.46L165.146 203.024" stroke="#45E0A8" stroke-width="1.2" stroke-linecap="round" stroke-linejoin="round"/>
<path d="M162.964 186.562L171.884 198.852" stroke="#45E0A8" stroke-width="1.2" stroke-linecap="round" stroke-linejoin="round"/>
<path d="M175.182 176.027L181.087 193.499" stroke="#45E0A8" stroke-width="1.2" stroke-linecap="round" stroke-linejoin="round"/>
<path d="M192.802 192.705L194.129 185.169" stroke="#45E0A8" stroke-width="1.2" stroke-linecap="round" stroke-linejoin="round"/>
<path d="M200.472 196.018L208.272 181.231" stroke="#45E0A8" stroke-width="1.2" stroke-linecap="round" stroke-linejoin="round"/>
<path d="M208.272 199.546L211.98 194.446" stroke="#45E0A8" stroke-width="1.2" stroke-linecap="round" stroke-linejoin="round"/>
<path d="M171.887 18.6945C171.887 18.6945 172.49 29.5162 172.179 34.6164Z" fill="#45E0A8"/>
<path d="M171.887 18.6945C171.887 18.6945 172.49 29.5162 172.179 34.6164" stroke="black" stroke-width="1.2" stroke-linecap="round" stroke-linejoin="round"/>
<path d="M133.897 53.3148C133.897 53.3148 134.012 47.4437 131.527 36.6258C129.042 25.8079 126.427 21.9387 126.427 21.9387L133.329 20.2207C137.666 19.1431 140.999 18.6868 140.999 18.6868C140.999 18.6868 143.599 22.974 145.144 31.4374C147.249 42.9724 145.144 49.0275 145.144 49.0275C142.998 49.4787 140.894 50.1125 138.855 50.9219C137.138 51.5786 135.479 52.3791 133.897 53.3148V53.3148Z" fill="#45E0A8"/>
<path d="M126.306 21.7626C126.847 23.2965 127.68 24.4273 127.68 24.4273L141.869 20.4162L141.002 18.7222L126.306 21.7626Z" fill="white"/>
<path d="M133.897 53.3148C133.897 53.3148 134.012 47.4437 131.527 36.6258C129.042 25.8079 126.427 21.9387 126.427 21.9387L133.329 20.2207C137.666 19.1431 140.999 18.6868 140.999 18.6868C140.999 18.6868 143.599 22.974 145.144 31.4374C147.249 42.9724 145.144 49.0275 145.144 49.0275C142.998 49.4787 140.894 50.1125 138.855 50.9219C137.138 51.5786 135.479 52.3791 133.897 53.3148V53.3148Z" stroke="black" stroke-width="1.2" stroke-linecap="round" stroke-linejoin="round"/>
<path d="M148.346 242.776L150.49 227.525C150.49 227.525 152.737 231.156 160.395 232.663C168.053 234.17 168.981 234.308 168.981 234.308L167.424 250.031C167.424 250.031 156.456 248.309 152.495 246.196C148.534 244.083 148.346 242.776 148.346 242.776Z" fill="black"/>
<path d="M172.678 234.765L171.884 250.575L175.435 250.905L176.363 235.106L172.678 234.765Z" fill="black"/>
<path d="M184.853 235.566V251.373L186.245 251.411V235.566H184.853Z" fill="black"/>
<path d="M175.113 203.791C167.646 207.737 164.375 219.084 167.424 223.709C171.888 230.462 189.336 229.795 189.336 229.795C189.336 229.795 166.902 228.299 164.935 226.228C162.968 224.158 162.788 224.311 163.121 222.144C163.455 219.978 165.096 215.805 166.074 213.631C167.777 209.846 175.113 203.791 175.113 203.791Z" fill="black"/>
<path d="M246.761 209.589C247.225 213.474 246.761 237.855 246.761 237.855" stroke="#45E0A8" stroke-width="1.2" stroke-linecap="round" stroke-linejoin="round"/>
</svg>
